{
	"asset":{
		"generator":"Khronos glTF Blender I/O v3.6.27",
		"version":"2.0"
	},
	"extensionsUsed":[
		"KHR_materials_specular",
		"KHR_materials_ior",
		"KHR_materials_emissive_strength"
	],
	"scene":0,
	"scenes":[
		{
			"name":"Scene",
			"nodes":[
				0,
				1,
				2,
				3,
				4,
				5,
				6,
				7,
				8,
				9,
				10,
				11,
				14,
				15,
				16,
				17,
				19,
				20,
				21,
				22,
				23,
				24,
				25,
				26,
				27,
				28,
				29,
				30,
				31,
				32,
				33,
				34,
				35
			]
		}
	],
	"nodes":[
		{
			"mesh":0,
			"name":"Diamond",
			"translation":[
				-4.699999809265137,
				0,
				0
			]
		},
		{
			"mesh":1,
			"name":"cube-terrain-ground",
			"translation":[
				0,
				0,
				-2
			]
		},
		{
			"mesh":2,
			"name":"cube-terrain"
		},
		{
			"mesh":3,
			"name":"cube-terrain-small-ramp.001",
			"rotation":[
				0,
				-1,
				0,
				7.549790126404332e-08
			],
			"translation":[
				0,
				0.0004526376724243164,
				-3.999999761581421
			]
		},
		{
			"mesh":4,
			"name":"cube-terrain-small-ramp.002",
			"rotation":[
				0,
				-1,
				0,
				7.549790126404332e-08
			],
			"translation":[
				2,
				0.0004526376724243164,
				-3.999999761581421
			]
		},
		{
			"mesh":5,
			"name":"cube-terrain-down",
			"translation":[
				2,
				-0.996666669845581,
				0
			]
		},
		{
			"mesh":6,
			"name":"cube-terrain-ground-small",
			"translation":[
				2,
				-1,
				-2
			]
		},
		{
			"mesh":7,
			"name":"Box",
			"translation":[
				-3.5,
				0,
				-3.5
			]
		},
		{
			"mesh":8,
			"name":"ButtonLow",
			"translation":[
				-2.005000114440918,
				0.14999999105930328,
				-5.025000095367432
			]
		},
		{
			"mesh":9,
			"name":"ButtonLowBase",
			"translation":[
				-2.005000114440918,
				0,
				-5.025000095367432
			]
		},
		{
			"mesh":10,
			"name":"base",
			"translation":[
				-1.8989999294281006,
				0,
				-2.1000001430511475
			]
		},
		{
			"mesh":11,
			"name":"arrow",
			"translation":[
				-2.0349998474121094,
				1,
				-2.1000001430511475
			]
		},
		{
			"mesh":12,
			"name":"Plane",
			"rotation":[
				-0.4226182699203491,
				0,
				0,
				0.9063078165054321
			]
		},
		{
			"mesh":13,
			"name":"Plane.001",
			"rotation":[
				-0.29883626103401184,
				-0.6408563256263733,
				0.29883620142936707,
				0.6408564448356628
			]
		},
		{
			"children":[
				12,
				13
			],
			"mesh":14,
			"name":"Vegetation",
			"rotation":[
				0.4226182997226715,
				0,
				0,
				0.9063078165054321
			],
			"translation":[
				-2.799999952316284,
				0,
				-2.1000001430511475
			]
		},
		{
			"mesh":15,
			"name":"Rock",
			"translation":[
				-3.157743215560913,
				0,
				0.6546356678009033
			]
		},
		{
			"mesh":16,
			"name":"RockVar",
			"rotation":[
				0,
				0.6755901575088501,
				0,
				0.7372773885726929
			],
			"translation":[
				-3.0577433109283447,
				0,
				1.6546356678009033
			]
		},
		{
			"mesh":17,
			"name":"RockLarge",
			"translation":[
				-4.664177417755127,
				0,
				1.3999998569488525
			]
		},
		{
			"mesh":18,
			"name":"Leafs",
			"rotation":[
				0.12014923989772797,
				0.8417645692825317,
				-0.47770261764526367,
				0.2209000587463379
			],
			"translation":[
				0,
				3.6180002689361572,
				0.054000139236450195
			]
		},
		{
			"children":[
				18
			],
			"mesh":19,
			"name":"Coconut-three",
			"translation":[
				-5.5,
				-0.00828590802848339,
				-2.1205713748931885
			]
		},
		{
			"mesh":20,
			"name":"trap",
			"scale":[
				0.800000011920929,
				0.800000011920929,
				0.800000011920929
			],
			"translation":[
				0,
				0.05833332985639572,
				3
			]
		},
		{
			"mesh":21,
			"name":"teeth-right",
			"rotation":[
				0,
				-1,
				0,
				7.549790126404332e-08
			],
			"scale":[
				0.800000011920929,
				0.800000011920929,
				0.800000011920929
			],
			"translation":[
				0.10400009155273438,
				0.09833332896232605,
				3
			]
		},
		{
			"mesh":22,
			"name":"teeth-left",
			"scale":[
				0.800000011920929,
				0.800000011920929,
				0.800000011920929
			],
			"translation":[
				-0.10400009155273438,
				0.09833332896232605,
				3
			]
		},
		{
			"mesh":23,
			"name":"Coin",
			"rotation":[
				0.7071068286895752,
				0,
				0,
				0.7071068286895752
			],
			"scale":[
				1.020015835762024,
				1.020015835762024,
				1.020015835762024
			],
			"translation":[
				-3.8000004291534424,
				0.2700001001358032,
				0
			]
		},
		{
			"mesh":24,
			"name":"Trunks",
			"translation":[
				4.199999809265137,
				1.600000023841858,
				2.0999999046325684
			]
		},
		{
			"mesh":25,
			"name":"Rope",
			"translation":[
				4.108855724334717,
				1.069876790046692,
				2.0999999046325684
			]
		},
		{
			"mesh":26,
			"name":"Bridge",
			"scale":[
				0.15847282111644745,
				0.034108418971300125,
				0.7488817572593689
			],
			"translation":[
				4.216968536376953,
				0.8925623893737793,
				2.1004366874694824
			]
		},
		{
			"mesh":27,
			"name":"Colision",
			"scale":[
				0.9430150389671326,
				0.682168185710907,
				1
			],
			"translation":[
				4.194922924041748,
				0.909407377243042,
				2.000000476837158
			]
		},
		{
			"mesh":28,
			"name":"Mast",
			"scale":[
				0.30000001192092896,
				0.800000011920929,
				0.30000001192092896
			],
			"translation":[
				-2,
				0,
				-0.6000000238418579
			]
		},
		{
			"mesh":29,
			"name":"Flag",
			"scale":[
				0.2871520221233368,
				2.1000001430511475,
				1
			],
			"translation":[
				-2,
				1.2400000095367432,
				-0.5626839399337769
			]
		},
		{
			"mesh":30,
			"name":"Trampoline",
			"translation":[
				0,
				0.8600001335144043,
				-7
			]
		},
		{
			"mesh":31,
			"name":"Spring",
			"translation":[
				0,
				0.13999998569488525,
				-7
			]
		},
		{
			"mesh":32,
			"name":"Fire.001",
			"scale":[
				0.10000002384185791,
				0.10000002384185791,
				0.10000002384185791
			],
			"translation":[
				-4,
				-0.10000000149011612,
				4
			]
		},
		{
			"mesh":33,
			"name":"PlatformFall",
			"translation":[
				-4,
				0,
				4
			]
		},
		{
			"mesh":34,
			"name":"Fire",
			"scale":[
				0.10000002384185791,
				0.10000002384185791,
				0.10000002384185791
			],
			"translation":[
				-8,
				-0.10000000149011612,
				4
			]
		},
		{
			"mesh":35,
			"name":"PlatformMoving",
			"translation":[
				-8,
				0,
				4
			]
		}
	],
	"materials":[
		{
			"alphaMode":"BLEND",
			"doubleSided":true,
			"emissiveFactor":[
				0.03211027216551621,
				0.03763830434273929,
				0.09870395252533637
			],
			"extensions":{
				"KHR_materials_specular":{
					"specularColorFactor":[
						0,
						0,
						0
					]
				},
				"KHR_materials_ior":{
					"ior":1.4500000476837158
				}
			},
			"name":"Diamond",
			"pbrMetallicRoughness":{
				"baseColorFactor":[
					0.40404611825942993,
					0.38538697361946106,
					1,
					0.800000011920929
				],
				"roughnessFactor":0
			}
		},
		{
			"doubleSided":true,
			"name":"Pallete",
			"pbrMetallicRoughness":{
				"baseColorTexture":{
					"index":0
				},
				"metallicFactor":0,
				"roughnessFactor":0.75
			}
		},
		{
			"doubleSided":true,
			"name":"NormalBoxWood",
			"normalTexture":{
				"index":1,
				"scale":10
			},
			"pbrMetallicRoughness":{
				"baseColorTexture":{
					"index":2
				},
				"metallicFactor":0,
				"roughnessFactor":0.5
			}
		},
		{
			"doubleSided":true,
			"name":"PlasticGreen",
			"pbrMetallicRoughness":{
				"baseColorFactor":[
					0.1793903410434723,
					0.8000000715255737,
					0.011192708276212215,
					1
				],
				"metallicFactor":0,
				"roughnessFactor":0.5
			}
		},
		{
			"doubleSided":true,
			"name":"Metal",
			"pbrMetallicRoughness":{
				"baseColorTexture":{
					"index":3
				},
				"roughnessFactor":0.5
			}
		},
		{
			"doubleSided":true,
			"name":"Pallete",
			"pbrMetallicRoughness":{
				"baseColorTexture":{
					"index":4
				},
				"metallicFactor":0,
				"roughnessFactor":0.75
			}
		},
		{
			"doubleSided":true,
			"name":"Metal",
			"pbrMetallicRoughness":{
				"baseColorTexture":{
					"index":5
				},
				"roughnessFactor":0.5
			}
		},
		{
			"doubleSided":true,
			"emissiveFactor":[
				0.052201662212610245,
				0.04422513023018837,
				0
			],
			"extensions":{
				"KHR_materials_specular":{
					"specularColorFactor":[
						2.371357614441398,
						2.371357614441398,
						2.371357614441398
					]
				},
				"KHR_materials_ior":{
					"ior":1.4500000476837158
				}
			},
			"name":"Coin",
			"normalTexture":{
				"index":6
			},
			"pbrMetallicRoughness":{
				"baseColorFactor":[
					0.8000000715255737,
					0.747435450553894,
					0,
					1
				],
				"roughnessFactor":0.24803148210048676
			}
		},
		{
			"doubleSided":true,
			"emissiveFactor":[
				1,
				1,
				1
			],
			"emissiveTexture":{
				"index":7
			},
			"extensions":{
				"KHR_materials_emissive_strength":{
					"emissiveStrength":50
				}
			},
			"name":"Fire",
			"pbrMetallicRoughness":{
				"baseColorFactor":[
					1,
					0.09977248311042786,
					0.01520463265478611,
					1
				],
				"metallicFactor":0,
				"roughnessFactor":0.5
			}
		}
	],
	"meshes":[
		{
			"name":"Gem",
			"primitives":[
				{
					"attributes":{
						"POSITION":0,
						"NORMAL":1
					},
					"indices":2,
					"material":0
				}
			]
		},
		{
			"name":"Cube.011",
			"primitives":[
				{
					"attributes":{
						"POSITION":3,
						"NORMAL":4,
						"TEXCOORD_0":5
					},
					"indices":6,
					"material":1
				}
			]
		},
		{
			"name":"Cube.013",
			"primitives":[
				{
					"attributes":{
						"POSITION":7,
						"NORMAL":8,
						"TEXCOORD_0":9
					},
					"indices":10,
					"material":1
				}
			]
		},
		{
			"name":"Cube.001",
			"primitives":[
				{
					"attributes":{
						"POSITION":11,
						"NORMAL":12,
						"TEXCOORD_0":13
					},
					"indices":14,
					"material":1
				}
			]
		},
		{
			"name":"Cube.021",
			"primitives":[
				{
					"attributes":{
						"POSITION":15,
						"NORMAL":16,
						"TEXCOORD_0":17
					},
					"indices":18,
					"material":1
				}
			]
		},
		{
			"name":"Cube.004",
			"primitives":[
				{
					"attributes":{
						"POSITION":19,
						"NORMAL":20,
						"TEXCOORD_0":21
					},
					"indices":10,
					"material":1
				}
			]
		},
		{
			"name":"Cube.005",
			"primitives":[
				{
					"attributes":{
						"POSITION":22,
						"NORMAL":23,
						"TEXCOORD_0":24
					},
					"indices":25,
					"material":1
				}
			]
		},
		{
			"name":"Cube.016",
			"primitives":[
				{
					"attributes":{
						"POSITION":26,
						"NORMAL":27,
						"TEXCOORD_0":28
					},
					"indices":29,
					"material":2
				}
			]
		},
		{
			"name":"Cylinder.001",
			"primitives":[
				{
					"attributes":{
						"POSITION":30,
						"NORMAL":31,
						"TEXCOORD_0":32
					},
					"indices":33,
					"material":3
				}
			]
		},
		{
			"name":"Cylinder",
			"primitives":[
				{
					"attributes":{
						"POSITION":34,
						"NORMAL":35,
						"TEXCOORD_0":36
					},
					"indices":37,
					"material":4
				}
			]
		},
		{
			"name":"Cube.017",
			"primitives":[
				{
					"attributes":{
						"POSITION":38,
						"NORMAL":39,
						"TEXCOORD_0":40
					},
					"indices":41,
					"material":1
				}
			]
		},
		{
			"name":"Cube.002",
			"primitives":[
				{
					"attributes":{
						"POSITION":42,
						"NORMAL":43,
						"TEXCOORD_0":44
					},
					"indices":45,
					"material":1
				}
			]
		},
		{
			"name":"Plane",
			"primitives":[
				{
					"attributes":{
						"POSITION":46,
						"NORMAL":47,
						"TEXCOORD_0":48
					},
					"indices":49,
					"material":1
				}
			]
		},
		{
			"name":"Plane.001",
			"primitives":[
				{
					"attributes":{
						"POSITION":50,
						"NORMAL":51,
						"TEXCOORD_0":52
					},
					"indices":53,
					"material":1
				}
			]
		},
		{
			"name":"Plane.002",
			"primitives":[
				{
					"attributes":{
						"POSITION":54,
						"NORMAL":55,
						"TEXCOORD_0":56
					},
					"indices":57,
					"material":5
				}
			]
		},
		{
			"name":"Cube",
			"primitives":[
				{
					"attributes":{
						"POSITION":58,
						"NORMAL":59,
						"TEXCOORD_0":60
					},
					"indices":61,
					"material":1
				}
			]
		},
		{
			"name":"Cube.015",
			"primitives":[
				{
					"attributes":{
						"POSITION":62,
						"NORMAL":63,
						"TEXCOORD_0":64
					},
					"indices":65,
					"material":1
				}
			]
		},
		{
			"name":"Cube.018",
			"primitives":[
				{
					"attributes":{
						"POSITION":66,
						"NORMAL":67,
						"TEXCOORD_0":68
					},
					"indices":69,
					"material":1
				}
			]
		},
		{
			"name":"Plane.006",
			"primitives":[
				{
					"attributes":{
						"POSITION":70,
						"NORMAL":71,
						"TEXCOORD_0":72
					},
					"indices":73,
					"material":5
				}
			]
		},
		{
			"name":"Trunk",
			"primitives":[
				{
					"attributes":{
						"POSITION":74,
						"NORMAL":75,
						"TEXCOORD_0":76
					},
					"indices":77,
					"material":5
				}
			]
		},
		{
			"name":"Cylinder.009",
			"primitives":[
				{
					"attributes":{
						"POSITION":78,
						"NORMAL":79,
						"TEXCOORD_0":80
					},
					"indices":81,
					"material":6
				}
			]
		},
		{
			"name":"Cylinder.006",
			"primitives":[
				{
					"attributes":{
						"POSITION":82,
						"NORMAL":83,
						"TEXCOORD_0":84
					},
					"indices":85,
					"material":6
				}
			]
		},
		{
			"name":"Cylinder.007",
			"primitives":[
				{
					"attributes":{
						"POSITION":86,
						"NORMAL":87,
						"TEXCOORD_0":88
					},
					"indices":89,
					"material":6
				}
			]
		},
		{
			"name":"Cylinder.012",
			"primitives":[
				{
					"attributes":{
						"POSITION":90,
						"NORMAL":91,
						"TEXCOORD_0":92
					},
					"indices":93,
					"material":7
				}
			]
		},
		{
			"name":"Cylinder.008",
			"primitives":[
				{
					"attributes":{
						"POSITION":94,
						"NORMAL":95,
						"TEXCOORD_0":96
					},
					"indices":97,
					"material":5
				}
			]
		},
		{
			"name":"BezierCurve.001",
			"primitives":[
				{
					"attributes":{
						"POSITION":98,
						"NORMAL":99,
						"TEXCOORD_0":100
					},
					"indices":101,
					"material":5
				}
			]
		},
		{
			"name":"Cube.012",
			"primitives":[
				{
					"attributes":{
						"POSITION":102,
						"NORMAL":103,
						"TEXCOORD_0":104
					},
					"indices":105,
					"material":5
				}
			]
		},
		{
			"name":"Cube.020",
			"primitives":[
				{
					"attributes":{
						"POSITION":106,
						"NORMAL":107,
						"TEXCOORD_0":108
					},
					"indices":109
				}
			]
		},
		{
			"name":"Cylinder.003",
			"primitives":[
				{
					"attributes":{
						"POSITION":110,
						"NORMAL":111,
						"TEXCOORD_0":112
					},
					"indices":113,
					"material":5
				},
				{
					"attributes":{
						"POSITION":114,
						"NORMAL":115,
						"TEXCOORD_0":116
					},
					"indices":117,
					"material":6
				}
			]
		},
		{
			"name":"Cube.010",
			"primitives":[
				{
					"attributes":{
						"POSITION":118,
						"NORMAL":119,
						"TEXCOORD_0":120
					},
					"indices":29,
					"material":5
				}
			]
		},
		{
			"name":"Cylinder.004",
			"primitives":[
				{
					"attributes":{
						"POSITION":121,
						"NORMAL":122,
						"TEXCOORD_0":123
					},
					"indices":124,
					"material":5
				}
			]
		},
		{
			"name":"Spiral.001",
			"primitives":[
				{
					"attributes":{
						"POSITION":125,
						"NORMAL":126,
						"TEXCOORD_0":127
					},
					"indices":128,
					"material":6
				}
			]
		},
		{
			"name":"Sphere.002",
			"primitives":[
				{
					"attributes":{
						"POSITION":129,
						"NORMAL":130,
						"TEXCOORD_0":131
					},
					"indices":132,
					"material":8
				}
			]
		},
		{
			"name":"Cube.003",
			"primitives":[
				{
					"attributes":{
						"POSITION":133,
						"NORMAL":134,
						"TEXCOORD_0":135
					},
					"indices":136,
					"material":6
				}
			]
		},
		{
			"name":"Sphere.007",
			"primitives":[
				{
					"attributes":{
						"POSITION":137,
						"NORMAL":138,
						"TEXCOORD_0":139
					},
					"indices":140,
					"material":8
				}
			]
		},
		{
			"name":"Cube.009",
			"primitives":[
				{
					"attributes":{
						"POSITION":141,
						"NORMAL":142,
						"TEXCOORD_0":143
					},
					"indices":144,
					"material":6
				}
			]
		}
	],
	"textures":[
		{
			"sampler":0,
			"source":0
		},
		{
			"sampler":0,
			"source":1
		},
		{
			"sampler":0,
			"source":2
		},
		{
			"sampler":0,
			"source":0
		},
		{
			"sampler":0,
			"source":0
		},
		{
			"sampler":0,
			"source":0
		},
		{
			"sampler":0,
			"source":3
		},
		{
			"sampler":0,
			"source":0
		}
	],
	"images":[
		{
			"bufferView":7,
			"mimeType":"image/png",
			"name":"collors-for-low-poly"
		},
		{
			"bufferView":31,
			"mimeType":"image/png",
			"name":"BoxWoodNormal"
		},
		{
			"bufferView":32,
			"mimeType":"image/jpeg",
			"name":"WoodColor"
		},
		{
			"bufferView":97,
			"mimeType":"image/png",
			"name":"CoinNormalMap"
		}
	],
	"accessors":[
		{
			"bufferView":0,
			"componentType":5126,
			"count":145,
			"max":[
				0.27716386318206787,
				0.3453235328197479,
				0.27716386318206787
			],
			"min":[
				-0.27716386318206787,
				0.0003235507756471634,
				-0.27716386318206787
			],
			"type":"VEC3"
		},
		{
			"bufferView":1,
			"componentType":5126,
			"count":145,
			"type":"VEC3"
		},
		{
			"bufferView":2,
			"componentType":5123,
			"count":192,
			"type":"SCALAR"
		},
		{
			"bufferView":3,
			"componentType":5126,
			"count":45,
			"max":[
				1,
				1,
				1
			],
			"min":[
				-1,
				-1,
				-1
			],
			"type":"VEC3"
		},
		{
			"bufferView":4,
			"componentType":5126,
			"count":45,
			"type":"VEC3"
		},
		{
			"bufferView":5,
			"componentType":5126,
			"count":45,
			"type":"VEC2"
		},
		{
			"bufferView":6,
			"componentType":5123,
			"count":132,
			"type":"SCALAR"
		},
		{
			"bufferView":8,
			"componentType":5126,
			"count":66,
			"max":[
				0.9950000047683716,
				1,
				0.9750001430511475
			],
			"min":[
				-1.0049999952316284,
				-1,
				-1.0249998569488525
			],
			"type":"VEC3"
		},
		{
			"bufferView":9,
			"componentType":5126,
			"count":66,
			"type":"VEC3"
		},
		{
			"bufferView":10,
			"componentType":5126,
			"count":66,
			"type":"VEC2"
		},
		{
			"bufferView":11,
			"componentType":5123,
			"count":180,
			"type":"SCALAR"
		},
		{
			"bufferView":12,
			"componentType":5126,
			"count":69,
			"max":[
				1,
				1.9695533514022827,
				1
			],
			"min":[
				-1,
				-1.0012636184692383,
				-1
			],
			"type":"VEC3"
		},
		{
			"bufferView":13,
			"componentType":5126,
			"count":69,
			"type":"VEC3"
		},
		{
			"bufferView":14,
			"componentType":5126,
			"count":69,
			"type":"VEC2"
		},
		{
			"bufferView":15,
			"componentType":5123,
			"count":180,
			"type":"SCALAR"
		},
		{
			"bufferView":16,
			"componentType":5126,
			"count":69,
			"max":[
				1,
				0.9942896366119385,
				1
			],
			"min":[
				-1,
				-1.0012636184692383,
				-1
			],
			"type":"VEC3"
		},
		{
			"bufferView":17,
			"componentType":5126,
			"count":69,
			"type":"VEC3"
		},
		{
			"bufferView":18,
			"componentType":5126,
			"count":69,
			"type":"VEC2"
		},
		{
			"bufferView":19,
			"componentType":5123,
			"count":180,
			"type":"SCALAR"
		},
		{
			"bufferView":20,
			"componentType":5126,
			"count":66,
			"max":[
				1,
				1.998824954032898,
				1
			],
			"min":[
				-1,
				0.9965243339538574,
				-1
			],
			"type":"VEC3"
		},
		{
			"bufferView":21,
			"componentType":5126,
			"count":66,
			"type":"VEC3"
		},
		{
			"bufferView":22,
			"componentType":5126,
			"count":66,
			"type":"VEC2"
		},
		{
			"bufferView":23,
			"componentType":5126,
			"count":45,
			"max":[
				1,
				2,
				1
			],
			"min":[
				-1,
				1,
				-1
			],
			"type":"VEC3"
		},
		{
			"bufferView":24,
			"componentType":5126,
			"count":45,
			"type":"VEC3"
		},
		{
			"bufferView":25,
			"componentType":5126,
			"count":45,
			"type":"VEC2"
		},
		{
			"bufferView":26,
			"componentType":5123,
			"count":132,
			"type":"SCALAR"
		},
		{
			"bufferView":27,
			"componentType":5126,
			"count":24,
			"max":[
				0.5,
				0.9948236346244812,
				0.5
			],
			"min":[
				-0.5,
				-0.005176365375518799,
				-0.5
			],
			"type":"VEC3"
		},
		{
			"bufferView":28,
			"componentType":5126,
			"count":24,
			"type":"VEC3"
		},
		{
			"bufferView":29,
			"componentType":5126,
			"count":24,
			"type":"VEC2"
		},
		{
			"bufferView":30,
			"componentType":5123,
			"count":36,
			"type":"SCALAR"
		},
		{
			"bufferView":33,
			"componentType":5126,
			"count":66,
			"max":[
				0.6000000238418579,
				0.10000000149011612,
				0.6000000238418579
			],
			"min":[
				-0.6000000238418579,
				0,
				-0.6000000238418579
			],
			"type":"VEC3"
		},
		{
			"bufferView":34,
			"componentType":5126,
			"count":66,
			"type":"VEC3"
		},
		{
			"bufferView":35,
			"componentType":5126,
			"count":66,
			"type":"VEC2"
		},
		{
			"bufferView":36,
			"componentType":5123,
			"count":234,
			"type":"SCALAR"
		},
		{
			"bufferView":37,
			"componentType":5126,
			"count":70,
			"max":[
				0.75,
				0.15000000596046448,
				0.75
			],
			"min":[
				-0.75,
				0,
				-0.75
			],
			"type":"VEC3"
		},
		{
			"bufferView":38,
			"componentType":5126,
			"count":70,
			"type":"VEC3"
		},
		{
			"bufferView":39,
			"componentType":5126,
			"count":70,
			"type":"VEC2"
		},
		{
			"bufferView":40,
			"componentType":5123,
			"count":234,
			"type":"SCALAR"
		},
		{
			"bufferView":41,
			"componentType":5126,
			"count":99,
			"max":[
				0.06800001114606857,
				1.2549999952316284,
				0.6120001673698425
			],
			"min":[
				-0.13600008189678192,
				0,
				-0.6120001673698425
			],
			"type":"VEC3"
		},
		{
			"bufferView":42,
			"componentType":5126,
			"count":99,
			"type":"VEC3"
		},
		{
			"bufferView":43,
			"componentType":5126,
			"count":99,
			"type":"VEC2"
		},
		{
			"bufferView":44,
			"componentType":5123,
			"count":264,
			"type":"SCALAR"
		},
		{
			"bufferView":45,
			"componentType":5126,
			"count":56,
			"max":[
				2.2351742678949904e-09,
				0.1835998296737671,
				0.21480008959770203
			],
			"min":[
				-0.020399952307343483,
				-0.18360021710395813,
				-0.21480008959770203
			],
			"type":"VEC3"
		},
		{
			"bufferView":46,
			"componentType":5126,
			"count":56,
			"type":"VEC3"
		},
		{
			"bufferView":47,
			"componentType":5126,
			"count":56,
			"type":"VEC2"
		},
		{
			"bufferView":48,
			"componentType":5123,
			"count":84,
			"type":"SCALAR"
		},
		{
			"bufferView":49,
			"componentType":5126,
			"count":27,
			"max":[
				0.11295802891254425,
				0.19010674953460693,
				0.3503285050392151
			],
			"min":[
				-0.11295802891254425,
				0,
				-0.3503285050392151
			],
			"type":"VEC3"
		},
		{
			"bufferView":50,
			"componentType":5126,
			"count":27,
			"type":"VEC3"
		},
		{
			"bufferView":51,
			"componentType":5126,
			"count":27,
			"type":"VEC2"
		},
		{
			"bufferView":52,
			"componentType":5123,
			"count":96,
			"type":"SCALAR"
		},
		{
			"bufferView":53,
			"componentType":5126,
			"count":30,
			"max":[
				0.11295803636312485,
				0.19010674953460693,
				0.4097786247730255
			],
			"min":[
				-0.11295802146196365,
				0,
				-0.4097786247730255
			],
			"type":"VEC3"
		},
		{
			"bufferView":54,
			"componentType":5126,
			"count":30,
			"type":"VEC3"
		},
		{
			"bufferView":55,
			"componentType":5126,
			"count":30,
			"type":"VEC2"
		},
		{
			"bufferView":56,
			"componentType":5123,
			"count":96,
			"type":"SCALAR"
		},
		{
			"bufferView":57,
			"componentType":5126,
			"count":15,
			"max":[
				0.11295802891254425,
				0.19010674953460693,
				0
			],
			"min":[
				-0.11295802891254425,
				0,
				-0.3503285050392151
			],
			"type":"VEC3"
		},
		{
			"bufferView":58,
			"componentType":5126,
			"count":15,
			"type":"VEC3"
		},
		{
			"bufferView":59,
			"componentType":5126,
			"count":15,
			"type":"VEC2"
		},
		{
			"bufferView":60,
			"componentType":5123,
			"count":48,
			"type":"SCALAR"
		},
		{
			"bufferView":61,
			"componentType":5126,
			"count":53,
			"max":[
				0.34657806158065796,
				0.42798560857772827,
				0.3858695328235626
			],
			"min":[
				-0.3848017156124115,
				-2.9802322387695312e-08,
				-0.3401028513908386
			],
			"type":"VEC3"
		},
		{
			"bufferView":62,
			"componentType":5126,
			"count":53,
			"type":"VEC3"
		},
		{
			"bufferView":63,
			"componentType":5126,
			"count":53,
			"type":"VEC2"
		},
		{
			"bufferView":64,
			"componentType":5123,
			"count":132,
			"type":"SCALAR"
		},
		{
			"bufferView":65,
			"componentType":5126,
			"count":57,
			"max":[
				0.3970443606376648,
				0.5651540160179138,
				0.2547156512737274
			],
			"min":[
				-0.17709383368492126,
				-2.9802322387695312e-08,
				-0.29201528429985046
			],
			"type":"VEC3"
		},
		{
			"bufferView":66,
			"componentType":5126,
			"count":57,
			"type":"VEC3"
		},
		{
			"bufferView":67,
			"componentType":5126,
			"count":57,
			"type":"VEC2"
		},
		{
			"bufferView":68,
			"componentType":5123,
			"count":132,
			"type":"SCALAR"
		},
		{
			"bufferView":69,
			"componentType":5126,
			"count":100,
			"max":[
				0.9094074964523315,
				0.6588670015335083,
				0.7648859620094299
			],
			"min":[
				-0.977073073387146,
				-7.450580596923828e-08,
				-0.8423373103141785
			],
			"type":"VEC3"
		},
		{
			"bufferView":70,
			"componentType":5126,
			"count":100,
			"type":"VEC3"
		},
		{
			"bufferView":71,
			"componentType":5126,
			"count":100,
			"type":"VEC2"
		},
		{
			"bufferView":72,
			"componentType":5123,
			"count":234,
			"type":"SCALAR"
		},
		{
			"bufferView":73,
			"componentType":5126,
			"count":118,
			"max":[
				1.400521993637085,
				1.440455436706543,
				0.6707904934883118
			],
			"min":[
				-1.3103255033493042,
				-1.3377478122711182,
				-1.4654077291488647
			],
			"type":"VEC3"
		},
		{
			"bufferView":74,
			"componentType":5126,
			"count":118,
			"type":"VEC3"
		},
		{
			"bufferView":75,
			"componentType":5126,
			"count":118,
			"type":"VEC2"
		},
		{
			"bufferView":76,
			"componentType":5123,
			"count":384,
			"type":"SCALAR"
		},
		{
			"bufferView":77,
			"componentType":5126,
			"count":80,
			"max":[
				0.6050534248352051,
				3.657644033432007,
				0.5400000214576721
			],
			"min":[
				-0.5400000214576721,
				0,
				-0.5400000214576721
			],
			"type":"VEC3"
		},
		{
			"bufferView":78,
			"componentType":5126,
			"count":80,
			"type":"VEC3"
		},
		{
			"bufferView":79,
			"componentType":5126,
			"count":80,
			"type":"VEC2"
		},
		{
			"bufferView":80,
			"componentType":5123,
			"count":210,
			"type":"SCALAR"
		},
		{
			"bufferView":81,
			"componentType":5126,
			"count":768,
			"max":[
				1,
				0.11000002920627594,
				1.0190001726150513
			],
			"min":[
				-1,
				-0.07000001519918442,
				-1.0190001726150513
			],
			"type":"VEC3"
		},
		{
			"bufferView":82,
			"componentType":5126,
			"count":768,
			"type":"VEC3"
		},
		{
			"bufferView":83,
			"componentType":5126,
			"count":768,
			"type":"VEC2"
		},
		{
			"bufferView":84,
			"componentType":5123,
			"count":1476,
			"type":"SCALAR"
		},
		{
			"bufferView":85,
			"componentType":5126,
			"count":108,
			"max":[
				0.0029401404317468405,
				0.1504814773797989,
				1
			],
			"min":[
				-1,
				-0.05000000074505806,
				-1
			],
			"type":"VEC3"
		},
		{
			"bufferView":86,
			"componentType":5126,
			"count":108,
			"type":"VEC3"
		},
		{
			"bufferView":87,
			"componentType":5126,
			"count":108,
			"type":"VEC2"
		},
		{
			"bufferView":88,
			"componentType":5123,
			"count":588,
			"type":"SCALAR"
		},
		{
			"bufferView":89,
			"componentType":5126,
			"count":108,
			"max":[
				0.0029401404317468405,
				0.1504814773797989,
				1
			],
			"min":[
				-1,
				-0.05000000074505806,
				-1
			],
			"type":"VEC3"
		},
		{
			"bufferView":90,
			"componentType":5126,
			"count":108,
			"type":"VEC3"
		},
		{
			"bufferView":91,
			"componentType":5126,
			"count":108,
			"type":"VEC2"
		},
		{
			"bufferView":92,
			"componentType":5123,
			"count":588,
			"type":"SCALAR"
		},
		{
			"bufferView":93,
			"componentType":5126,
			"count":216,
			"max":[
				0.2800000011920929,
				0.051379621028900146,
				0.27999991178512573
			],
			"min":[
				-0.2800000011920929,
				-0.051379621028900146,
				-0.28000009059906006
			],
			"type":"VEC3"
		},
		{
			"bufferView":94,
			"componentType":5126,
			"count":216,
			"type":"VEC3"
		},
		{
			"bufferView":95,
			"componentType":5126,
			"count":216,
			"type":"VEC2"
		},
		{
			"bufferView":96,
			"componentType":5123,
			"count":564,
			"type":"SCALAR"
		},
		{
			"bufferView":98,
			"componentType":5126,
			"count":104,
			"max":[
				2.3500001430511475,
				1,
				0.9754578471183777
			],
			"min":[
				-2.3500001430511475,
				-1,
				-0.9754578471183777
			],
			"type":"VEC3"
		},
		{
			"bufferView":99,
			"componentType":5126,
			"count":104,
			"type":"VEC3"
		},
		{
			"bufferView":100,
			"componentType":5126,
			"count":104,
			"type":"VEC2"
		},
		{
			"bufferView":101,
			"componentType":5123,
			"count":240,
			"type":"SCALAR"
		},
		{
			"bufferView":102,
			"componentType":5126,
			"count":370,
			"max":[
				2.47868013381958,
				0.19283410906791687,
				1.037463665008545
			],
			"min":[
				-2.3027098178863525,
				-0.3035714030265808,
				-1.0411218404769897
			],
			"type":"VEC3"
		},
		{
			"bufferView":103,
			"componentType":5126,
			"count":370,
			"type":"VEC3"
		},
		{
			"bufferView":104,
			"componentType":5126,
			"count":370,
			"type":"VEC2"
		},
		{
			"bufferView":105,
			"componentType":5123,
			"count":1728,
			"type":"SCALAR"
		},
		{
			"bufferView":106,
			"componentType":5126,
			"count":192,
			"max":[
				11.892840385437012,
				4.1338653564453125,
				1.0008461475372314
			],
			"min":[
				-11.892840385437012,
				-2.653017997741699,
				-1.0007611513137817
			],
			"type":"VEC3"
		},
		{
			"bufferView":107,
			"componentType":5126,
			"count":192,
			"type":"VEC3"
		},
		{
			"bufferView":108,
			"componentType":5126,
			"count":192,
			"type":"VEC2"
		},
		{
			"bufferView":109,
			"componentType":5123,
			"count":288,
			"type":"SCALAR"
		},
		{
			"bufferView":110,
			"componentType":5126,
			"count":84,
			"max":[
				2.2222471237182617,
				0.17818590998649597,
				1
			],
			"min":[
				-2.2222471237182617,
				-0.19753704965114594,
				-1
			],
			"type":"VEC3"
		},
		{
			"bufferView":111,
			"componentType":5126,
			"count":84,
			"type":"VEC3"
		},
		{
			"bufferView":112,
			"componentType":5126,
			"count":84,
			"type":"VEC2"
		},
		{
			"bufferView":113,
			"componentType":5123,
			"count":156,
			"type":"SCALAR"
		},
		{
			"bufferView":114,
			"componentType":5126,
			"count":96,
			"max":[
				1,
				0.19999995827674866,
				1
			],
			"min":[
				-1,
				0,
				-1
			],
			"type":"VEC3"
		},
		{
			"bufferView":115,
			"componentType":5126,
			"count":96,
			"type":"VEC3"
		},
		{
			"bufferView":116,
			"componentType":5126,
			"count":96,
			"type":"VEC2"
		},
		{
			"bufferView":117,
			"componentType":5123,
			"count":180,
			"type":"SCALAR"
		},
		{
			"bufferView":118,
			"componentType":5126,
			"count":48,
			"max":[
				0.33333319425582886,
				2.0583653450012207,
				0.28867512941360474
			],
			"min":[
				-0.3333333134651184,
				0.20011210441589355,
				-0.2886751890182495
			],
			"type":"VEC3"
		},
		{
			"bufferView":119,
			"componentType":5126,
			"count":48,
			"type":"VEC3"
		},
		{
			"bufferView":120,
			"componentType":5126,
			"count":48,
			"type":"VEC2"
		},
		{
			"bufferView":121,
			"componentType":5123,
			"count":198,
			"type":"SCALAR"
		},
		{
			"bufferView":122,
			"componentType":5126,
			"count":24,
			"max":[
				0.030000008642673492,
				0.10000002384185791,
				0.8400002121925354
			],
			"min":[
				-0.030000008642673492,
				-0.10000002384185791,
				-1.7881393432617188e-07
			],
			"type":"VEC3"
		},
		{
			"bufferView":123,
			"componentType":5126,
			"count":24,
			"type":"VEC3"
		},
		{
			"bufferView":124,
			"componentType":5126,
			"count":24,
			"type":"VEC2"
		},
		{
			"bufferView":125,
			"componentType":5126,
			"count":82,
			"max":[
				0.75,
				0.29999998211860657,
				0.75
			],
			"min":[
				-0.75,
				1.1175870895385742e-08,
				-0.75
			],
			"type":"VEC3"
		},
		{
			"bufferView":126,
			"componentType":5126,
			"count":82,
			"type":"VEC3"
		},
		{
			"bufferView":127,
			"componentType":5126,
			"count":82,
			"type":"VEC2"
		},
		{
			"bufferView":128,
			"componentType":5123,
			"count":276,
			"type":"SCALAR"
		},
		{
			"bufferView":129,
			"componentType":5126,
			"count":160,
			"max":[
				0.25491297245025635,
				0.8459943532943726,
				0.22093269228935242
			],
			"min":[
				-0.25432753562927246,
				-0.04466257989406586,
				-0.22086861729621887
			],
			"type":"VEC3"
		},
		{
			"bufferView":130,
			"componentType":5126,
			"count":160,
			"type":"VEC3"
		},
		{
			"bufferView":131,
			"componentType":5126,
			"count":160,
			"type":"VEC2"
		},
		{
			"bufferView":132,
			"componentType":5123,
			"count":744,
			"type":"SCALAR"
		},
		{
			"bufferView":133,
			"componentType":5126,
			"count":264,
			"max":[
				11.823637008666992,
				-1.5909825563430786,
				11.951054573059082
			],
			"min":[
				-11.823637008666992,
				-2.8999996185302734,
				-11.951054573059082
			],
			"type":"VEC3"
		},
		{
			"bufferView":134,
			"componentType":5126,
			"count":264,
			"type":"VEC3"
		},
		{
			"bufferView":135,
			"componentType":5126,
			"count":264,
			"type":"VEC2"
		},
		{
			"bufferView":136,
			"componentType":5123,
			"count":360,
			"type":"SCALAR"
		},
		{
			"bufferView":137,
			"componentType":5126,
			"count":416,
			"max":[
				1.5,
				0.3999999761581421,
				1.5
			],
			"min":[
				-1.5,
				-0.25999999046325684,
				-1.5
			],
			"type":"VEC3"
		},
		{
			"bufferView":138,
			"componentType":5126,
			"count":416,
			"type":"VEC3"
		},
		{
			"bufferView":139,
			"componentType":5126,
			"count":416,
			"type":"VEC2"
		},
		{
			"bufferView":140,
			"componentType":5123,
			"count":684,
			"type":"SCALAR"
		},
		{
			"bufferView":141,
			"componentType":5126,
			"count":792,
			"max":[
				17.891897201538086,
				3.8155159950256348,
				17.891897201538086
			],
			"min":[
				-17.891897201538086,
				-2.8999996185302734,
				-17.891897201538086
			],
			"type":"VEC3"
		},
		{
			"bufferView":142,
			"componentType":5126,
			"count":792,
			"type":"VEC3"
		},
		{
			"bufferView":143,
			"componentType":5126,
			"count":792,
			"type":"VEC2"
		},
		{
			"bufferView":144,
			"componentType":5123,
			"count":1080,
			"type":"SCALAR"
		},
		{
			"bufferView":145,
			"componentType":5126,
			"count":568,
			"max":[
				1.659998893737793,
				0.3999999761581421,
				1.6599990129470825
			],
			"min":[
				-1.659998893737793,
				-0.25999999046325684,
				-1.6599990129470825
			],
			"type":"VEC3"
		},
		{
			"bufferView":146,
			"componentType":5126,
			"count":568,
			"type":"VEC3"
		},
		{
			"bufferView":147,
			"componentType":5126,
			"count":568,
			"type":"VEC2"
		},
		{
			"bufferView":148,
			"componentType":5123,
			"count":900,
			"type":"SCALAR"
		}
	],
	"bufferViews":[
		{
			"buffer":0,
			"byteLength":1740,
			"byteOffset":0,
			"target":34962
		},
		{
			"buffer":0,
			"byteLength":1740,
			"byteOffset":1740,
			"target":34962
		},
		{
			"buffer":0,
			"byteLength":384,
			"byteOffset":3480,
			"target":34963
		},
		{
			"buffer":0,
			"byteLength":540,
			"byteOffset":3864,
			"target":34962
		},
		{
			"buffer":0,
			"byteLength":540,
			"byteOffset":4404,
			"target":34962
		},
		{
			"buffer":0,
			"byteLength":360,
			"byteOffset":4944,
			"target":34962
		},
		{
			"buffer":0,
			"byteLength":264,
			"byteOffset":5304,
			"target":34963
		},
		{
			"buffer":0,
			"byteLength":12710,
			"byteOffset":5568
		},
		{
			"buffer":0,
			"byteLength":792,
			"byteOffset":18280,
			"target":34962
		},
		{
			"buffer":0,
			"byteLength":792,
			"byteOffset":19072,
			"target":34962
		},
		{
			"buffer":0,
			"byteLength":528,
			"byteOffset":19864,
			"target":34962
		},
		{
			"buffer":0,
			"byteLength":360,
			"byteOffset":20392,
			"target":34963
		},
		{
			"buffer":0,
			"byteLength":828,
			"byteOffset":20752,
			"target":34962
		},
		{
			"buffer":0,
			"byteLength":828,
			"byteOffset":21580,
			"target":34962
		},
		{
			"buffer":0,
			"byteLength":552,
			"byteOffset":22408,
			"target":34962
		},
		{
			"buffer":0,
			"byteLength":360,
			"byteOffset":22960,
			"target":34963
		},
		{
			"buffer":0,
			"byteLength":828,
			"byteOffset":23320,
			"target":34962
		},
		{
			"buffer":0,
			"byteLength":828,
			"byteOffset":24148,
			"target":34962
		},
		{
			"buffer":0,
			"byteLength":552,
			"byteOffset":24976,
			"target":34962
		},
		{
			"buffer":0,
			"byteLength":360,
			"byteOffset":25528,
			"target":34963
		},
		{
			"buffer":0,
			"byteLength":792,
			"byteOffset":25888,
			"target":34962
		},
		{
			"buffer":0,
			"byteLength":792,
			"byteOffset":26680,
			"target":34962
		},
		{
			"buffer":0,
			"byteLength":528,
			"byteOffset":27472,
			"target":34962
		},
		{
			"buffer":0,
			"byteLength":540,
			"byteOffset":28000,
			"target":34962
		},
		{
			"buffer":0,
			"byteLength":540,
			"byteOffset":28540,
			"target":34962
		},
		{
			"buffer":0,
			"byteLength":360,
			"byteOffset":29080,
			"target":34962
		},
		{
			"buffer":0,
			"byteLength":264,
			"byteOffset":29440,
			"target":34963
		},
		{
			"buffer":0,
			"byteLength":288,
			"byteOffset":29704,
			"target":34962
		},
		{
			"buffer":0,
			"byteLength":288,
			"byteOffset":29992,
			"target":34962
		},
		{
			"buffer":0,
			"byteLength":192,
			"byteOffset":30280,
			"target":34962
		},
		{
			"buffer":0,
			"byteLength":72,
			"byteOffset":30472,
			"target":34963
		},
		{
			"buffer":0,
			"byteLength":47923,
			"byteOffset":30544
		},
		{
			"buffer":0,
			"byteLength":199440,
			"byteOffset":78468
		},
		{
			"buffer":0,
			"byteLength":792,
			"byteOffset":277908,
			"target":34962
		},
		{
			"buffer":0,
			"byteLength":792,
			"byteOffset":278700,
			"target":34962
		},
		{
			"buffer":0,
			"byteLength":528,
			"byteOffset":279492,
			"target":34962
		},
		{
			"buffer":0,
			"byteLength":468,
			"byteOffset":280020,
			"target":34963
		},
		{
			"buffer":0,
			"byteLength":840,
			"byteOffset":280488,
			"target":34962
		},
		{
			"buffer":0,
			"byteLength":840,
			"byteOffset":281328,
			"target":34962
		},
		{
			"buffer":0,
			"byteLength":560,
			"byteOffset":282168,
			"target":34962
		},
		{
			"buffer":0,
			"byteLength":468,
			"byteOffset":282728,
			"target":34963
		},
		{
			"buffer":0,
			"byteLength":1188,
			"byteOffset":283196,
			"target":34962
		},
		{
			"buffer":0,
			"byteLength":1188,
			"byteOffset":284384,
			"target":34962
		},
		{
			"buffer":0,
			"byteLength":792,
			"byteOffset":285572,
			"target":34962
		},
		{
			"buffer":0,
			"byteLength":528,
			"byteOffset":286364,
			"target":34963
		},
		{
			"buffer":0,
			"byteLength":672,
			"byteOffset":286892,
			"target":34962
		},
		{
			"buffer":0,
			"byteLength":672,
			"byteOffset":287564,
			"target":34962
		},
		{
			"buffer":0,
			"byteLength":448,
			"byteOffset":288236,
			"target":34962
		},
		{
			"buffer":0,
			"byteLength":168,
			"byteOffset":288684,
			"target":34963
		},
		{
			"buffer":0,
			"byteLength":324,
			"byteOffset":288852,
			"target":34962
		},
		{
			"buffer":0,
			"byteLength":324,
			"byteOffset":289176,
			"target":34962
		},
		{
			"buffer":0,
			"byteLength":216,
			"byteOffset":289500,
			"target":34962
		},
		{
			"buffer":0,
			"byteLength":192,
			"byteOffset":289716,
			"target":34963
		},
		{
			"buffer":0,
			"byteLength":360,
			"byteOffset":289908,
			"target":34962
		},
		{
			"buffer":0,
			"byteLength":360,
			"byteOffset":290268,
			"target":34962
		},
		{
			"buffer":0,
			"byteLength":240,
			"byteOffset":290628,
			"target":34962
		},
		{
			"buffer":0,
			"byteLength":192,
			"byteOffset":290868,
			"target":34963
		},
		{
			"buffer":0,
			"byteLength":180,
			"byteOffset":291060,
			"target":34962
		},
		{
			"buffer":0,
			"byteLength":180,
			"byteOffset":291240,
			"target":34962
		},
		{
			"buffer":0,
			"byteLength":120,
			"byteOffset":291420,
			"target":34962
		},
		{
			"buffer":0,
			"byteLength":96,
			"byteOffset":291540,
			"target":34963
		},
		{
			"buffer":0,
			"byteLength":636,
			"byteOffset":291636,
			"target":34962
		},
		{
			"buffer":0,
			"byteLength":636,
			"byteOffset":292272,
			"target":34962
		},
		{
			"buffer":0,
			"byteLength":424,
			"byteOffset":292908,
			"target":34962
		},
		{
			"buffer":0,
			"byteLength":264,
			"byteOffset":293332,
			"target":34963
		},
		{
			"buffer":0,
			"byteLength":684,
			"byteOffset":293596,
			"target":34962
		},
		{
			"buffer":0,
			"byteLength":684,
			"byteOffset":294280,
			"target":34962
		},
		{
			"buffer":0,
			"byteLength":456,
			"byteOffset":294964,
			"target":34962
		},
		{
			"buffer":0,
			"byteLength":264,
			"byteOffset":295420,
			"target":34963
		},
		{
			"buffer":0,
			"byteLength":1200,
			"byteOffset":295684,
			"target":34962
		},
		{
			"buffer":0,
			"byteLength":1200,
			"byteOffset":296884,
			"target":34962
		},
		{
			"buffer":0,
			"byteLength":800,
			"byteOffset":298084,
			"target":34962
		},
		{
			"buffer":0,
			"byteLength":468,
			"byteOffset":298884,
			"target":34963
		},
		{
			"buffer":0,
			"byteLength":1416,
			"byteOffset":299352,
			"target":34962
		},
		{
			"buffer":0,
			"byteLength":1416,
			"byteOffset":300768,
			"target":34962
		},
		{
			"buffer":0,
			"byteLength":944,
			"byteOffset":302184,
			"target":34962
		},
		{
			"buffer":0,
			"byteLength":768,
			"byteOffset":303128,
			"target":34963
		},
		{
			"buffer":0,
			"byteLength":960,
			"byteOffset":303896,
			"target":34962
		},
		{
			"buffer":0,
			"byteLength":960,
			"byteOffset":304856,
			"target":34962
		},
		{
			"buffer":0,
			"byteLength":640,
			"byteOffset":305816,
			"target":34962
		},
		{
			"buffer":0,
			"byteLength":420,
			"byteOffset":306456,
			"target":34963
		},
		{
			"buffer":0,
			"byteLength":9216,
			"byteOffset":306876,
			"target":34962
		},
		{
			"buffer":0,
			"byteLength":9216,
			"byteOffset":316092,
			"target":34962
		},
		{
			"buffer":0,
			"byteLength":6144,
			"byteOffset":325308,
			"target":34962
		},
		{
			"buffer":0,
			"byteLength":2952,
			"byteOffset":331452,
			"target":34963
		},
		{
			"buffer":0,
			"byteLength":1296,
			"byteOffset":334404,
			"target":34962
		},
		{
			"buffer":0,
			"byteLength":1296,
			"byteOffset":335700,
			"target":34962
		},
		{
			"buffer":0,
			"byteLength":864,
			"byteOffset":336996,
			"target":34962
		},
		{
			"buffer":0,
			"byteLength":1176,
			"byteOffset":337860,
			"target":34963
		},
		{
			"buffer":0,
			"byteLength":1296,
			"byteOffset":339036,
			"target":34962
		},
		{
			"buffer":0,
			"byteLength":1296,
			"byteOffset":340332,
			"target":34962
		},
		{
			"buffer":0,
			"byteLength":864,
			"byteOffset":341628,
			"target":34962
		},
		{
			"buffer":0,
			"byteLength":1176,
			"byteOffset":342492,
			"target":34963
		},
		{
			"buffer":0,
			"byteLength":2592,
			"byteOffset":343668,
			"target":34962
		},
		{
			"buffer":0,
			"byteLength":2592,
			"byteOffset":346260,
			"target":34962
		},
		{
			"buffer":0,
			"byteLength":1728,
			"byteOffset":348852,
			"target":34962
		},
		{
			"buffer":0,
			"byteLength":1128,
			"byteOffset":350580,
			"target":34963
		},
		{
			"buffer":0,
			"byteLength":108060,
			"byteOffset":351708
		},
		{
			"buffer":0,
			"byteLength":1248,
			"byteOffset":459768,
			"target":34962
		},
		{
			"buffer":0,
			"byteLength":1248,
			"byteOffset":461016,
			"target":34962
		},
		{
			"buffer":0,
			"byteLength":832,
			"byteOffset":462264,
			"target":34962
		},
		{
			"buffer":0,
			"byteLength":480,
			"byteOffset":463096,
			"target":34963
		},
		{
			"buffer":0,
			"byteLength":4440,
			"byteOffset":463576,
			"target":34962
		},
		{
			"buffer":0,
			"byteLength":4440,
			"byteOffset":468016,
			"target":34962
		},
		{
			"buffer":0,
			"byteLength":2960,
			"byteOffset":472456,
			"target":34962
		},
		{
			"buffer":0,
			"byteLength":3456,
			"byteOffset":475416,
			"target":34963
		},
		{
			"buffer":0,
			"byteLength":2304,
			"byteOffset":478872,
			"target":34962
		},
		{
			"buffer":0,
			"byteLength":2304,
			"byteOffset":481176,
			"target":34962
		},
		{
			"buffer":0,
			"byteLength":1536,
			"byteOffset":483480,
			"target":34962
		},
		{
			"buffer":0,
			"byteLength":576,
			"byteOffset":485016,
			"target":34963
		},
		{
			"buffer":0,
			"byteLength":1008,
			"byteOffset":485592,
			"target":34962
		},
		{
			"buffer":0,
			"byteLength":1008,
			"byteOffset":486600,
			"target":34962
		},
		{
			"buffer":0,
			"byteLength":672,
			"byteOffset":487608,
			"target":34962
		},
		{
			"buffer":0,
			"byteLength":312,
			"byteOffset":488280,
			"target":34963
		},
		{
			"buffer":0,
			"byteLength":1152,
			"byteOffset":488592,
			"target":34962
		},
		{
			"buffer":0,
			"byteLength":1152,
			"byteOffset":489744,
			"target":34962
		},
		{
			"buffer":0,
			"byteLength":768,
			"byteOffset":490896,
			"target":34962
		},
		{
			"buffer":0,
			"byteLength":360,
			"byteOffset":491664,
			"target":34963
		},
		{
			"buffer":0,
			"byteLength":576,
			"byteOffset":492024,
			"target":34962
		},
		{
			"buffer":0,
			"byteLength":576,
			"byteOffset":492600,
			"target":34962
		},
		{
			"buffer":0,
			"byteLength":384,
			"byteOffset":493176,
			"target":34962
		},
		{
			"buffer":0,
			"byteLength":396,
			"byteOffset":493560,
			"target":34963
		},
		{
			"buffer":0,
			"byteLength":288,
			"byteOffset":493956,
			"target":34962
		},
		{
			"buffer":0,
			"byteLength":288,
			"byteOffset":494244,
			"target":34962
		},
		{
			"buffer":0,
			"byteLength":192,
			"byteOffset":494532,
			"target":34962
		},
		{
			"buffer":0,
			"byteLength":984,
			"byteOffset":494724,
			"target":34962
		},
		{
			"buffer":0,
			"byteLength":984,
			"byteOffset":495708,
			"target":34962
		},
		{
			"buffer":0,
			"byteLength":656,
			"byteOffset":496692,
			"target":34962
		},
		{
			"buffer":0,
			"byteLength":552,
			"byteOffset":497348,
			"target":34963
		},
		{
			"buffer":0,
			"byteLength":1920,
			"byteOffset":497900,
			"target":34962
		},
		{
			"buffer":0,
			"byteLength":1920,
			"byteOffset":499820,
			"target":34962
		},
		{
			"buffer":0,
			"byteLength":1280,
			"byteOffset":501740,
			"target":34962
		},
		{
			"buffer":0,
			"byteLength":1488,
			"byteOffset":503020,
			"target":34963
		},
		{
			"buffer":0,
			"byteLength":3168,
			"byteOffset":504508,
			"target":34962
		},
		{
			"buffer":0,
			"byteLength":3168,
			"byteOffset":507676,
			"target":34962
		},
		{
			"buffer":0,
			"byteLength":2112,
			"byteOffset":510844,
			"target":34962
		},
		{
			"buffer":0,
			"byteLength":720,
			"byteOffset":512956,
			"target":34963
		},
		{
			"buffer":0,
			"byteLength":4992,
			"byteOffset":513676,
			"target":34962
		},
		{
			"buffer":0,
			"byteLength":4992,
			"byteOffset":518668,
			"target":34962
		},
		{
			"buffer":0,
			"byteLength":3328,
			"byteOffset":523660,
			"target":34962
		},
		{
			"buffer":0,
			"byteLength":1368,
			"byteOffset":526988,
			"target":34963
		},
		{
			"buffer":0,
			"byteLength":9504,
			"byteOffset":528356,
			"target":34962
		},
		{
			"buffer":0,
			"byteLength":9504,
			"byteOffset":537860,
			"target":34962
		},
		{
			"buffer":0,
			"byteLength":6336,
			"byteOffset":547364,
			"target":34962
		},
		{
			"buffer":0,
			"byteLength":2160,
			"byteOffset":553700,
			"target":34963
		},
		{
			"buffer":0,
			"byteLength":6816,
			"byteOffset":555860,
			"target":34962
		},
		{
			"buffer":0,
			"byteLength":6816,
			"byteOffset":562676,
			"target":34962
		},
		{
			"buffer":0,
			"byteLength":4544,
			"byteOffset":569492,
			"target":34962
		},
		{
			"buffer":0,
			"byteLength":1800,
			"byteOffset":574036,
			"target":34963
		}
	],
	"samplers":[
		{
			"magFilter":9729,
			"minFilter":9987
		}
	],
	"buffers":[
		{
			"byteLength":575836,
			"uri":"data:application/octet-stream;base64,"
		}
	]
}
